<svg width="21" height="21" viewBox="0 0 21 21" fill="none" xmlns="http://www.w3.org/2000/svg">
<g clip-path="url(#clip0)">
<path d="M20.0143 14.966C19.8029 16.2346 19.9086 17.556 18.7986 18.5603C17.6886 19.6174 15.9971 19.8817 14.57 19.9874C11.6629 20.1989 8.70286 19.7231 5.79572 19.8817C5.00286 19.7231 4.21 19.8289 3.41715 19.5117C2.36 19.036 1.77857 18.0317 1.51429 16.9746C1.51429 16.9217 1.51429 16.9217 1.46143 16.8689C1.14429 15.4946 1.14429 14.0146 1.09143 12.5874C1.03857 11.3189 1.03857 9.99743 1.09143 8.72886C1.14429 7.40743 1.35572 6.086 1.30286 4.81743C1.35572 4.81743 1.35572 4.76458 1.35572 4.71172C1.51429 2.91458 2.30715 1.48743 4.21 1.11743C5.53143 0.853147 6.95858 1.22315 8.28 1.01172C10.0243 1.11743 11.7157 1.22315 13.46 1.11743C14.3057 1.06458 15.1514 1.06458 16.05 1.11743C16.1557 1.11743 16.2614 1.17029 16.3671 1.17029C17.2129 1.276 17.8471 1.06458 18.5871 1.646C20.1729 2.80886 19.8029 5.24029 19.75 6.98458C19.6971 8.83458 19.75 10.6317 19.6971 12.4817C19.6971 13.2746 19.75 14.1731 19.75 15.0189H19.8029C19.9614 14.966 20.0143 14.966 20.0143 14.966ZM15.7857 9.99743C15.8914 10.526 15.8386 10.9489 15.7329 11.3717H15.68C15.5743 11.7417 15.3629 12.1117 15.1514 12.4817C14.3586 13.7503 12.9843 14.8074 11.5043 15.1246C9.54858 15.5474 7.54 14.8603 6.37715 13.1689C5.53143 11.9003 5.63715 10.6317 5.69 9.25743C5.69 9.15172 5.69 9.046 5.69 8.94029C5.69 8.88743 5.69 8.83458 5.69 8.83458C5.69 8.78172 5.69 8.78172 5.69 8.72886C5.69 8.62315 5.69 8.51743 5.69 8.35886C5.69 8.35886 5.69 8.35886 5.74286 8.35886C5.74286 8.306 5.74286 8.25315 5.74286 8.20029C5.74286 8.14743 5.74286 8.09458 5.74286 8.04172C5.37286 7.88315 4.84429 7.936 4.47429 7.936C3.99857 7.936 3.47 7.98886 2.99429 8.14743C2.99429 8.09458 2.88857 8.09458 2.88857 8.14743H2.83572C2.78286 8.14743 2.78286 8.20029 2.83572 8.20029H2.88857C2.99429 9.89172 2.73 11.5831 2.73 13.2217C2.73 14.3317 2.73 15.706 3.31143 16.7103C3.41715 16.9217 3.57572 17.0803 3.73429 17.186C3.78715 17.3974 3.84 17.3974 3.89286 17.3974C4.10429 17.7146 4.42143 17.8203 4.84429 17.926C6.06 18.0846 7.38143 17.9789 8.65 18.0317C10.1829 18.0846 11.7686 17.8731 13.3014 17.926C13.3543 17.926 13.4071 17.926 13.5129 17.926V17.8731C14.1471 18.0317 14.8871 18.0317 15.5214 17.9789C16.1029 17.9789 16.8957 18.0846 17.4243 17.7146V17.6617C17.53 17.6089 17.5829 17.5031 17.6886 17.3974C18.3757 16.6046 18.1643 15.336 18.2171 14.3846C18.27 12.376 18.5871 10.3674 18.4286 8.306C18.4286 8.25315 18.3757 8.20029 18.3229 8.25315C17.8471 8.14743 17.3714 8.20029 16.8429 8.20029C16.42 8.20029 15.9971 8.20029 15.6271 8.25315C15.5743 8.14743 15.4157 8.20029 15.4686 8.306H15.4157C15.3629 8.306 15.3629 8.35886 15.4157 8.35886H15.4686C15.5214 8.94029 15.68 9.46886 15.7857 9.99743ZM12.4557 12.9574C14.1471 11.636 14.6757 9.09886 13.0371 7.566C11.4514 6.086 8.80858 6.56172 7.69858 8.35886C7.64572 8.41172 7.75143 8.51743 7.80429 8.46458C7.85715 8.41172 7.91 8.35886 7.96286 8.306C7.17 9.416 7.06429 10.9489 7.80429 12.1646C8.75572 13.6446 11.0286 14.0146 12.4557 12.9574ZM17.6886 6.086C17.6886 5.02886 17.6886 4.02458 17.6886 2.96743C17.7414 2.96743 17.7414 2.86172 17.6886 2.86172C17.2657 2.70315 16.79 2.80886 16.3143 2.80886C15.7857 2.86172 15.31 2.86172 14.7814 2.91458C14.7286 2.86172 14.6229 2.86172 14.6229 2.96743C14.6229 3.02029 14.6229 3.07315 14.6229 3.07315C14.6229 4.07743 14.57 5.08172 14.57 6.086C14.57 6.13886 14.6229 6.19172 14.6757 6.19172C14.6757 6.24458 14.6757 6.24458 14.7286 6.24458C15.5743 6.29743 16.6843 6.50886 17.53 6.13886C17.5829 6.19172 17.6886 6.13886 17.6886 6.086Z" fill="white"/>
<path d="M14.8872 6.03322C15.1515 5.9275 15.5215 5.98036 15.8386 6.03322C16.3672 6.08608 16.9486 6.03322 17.4772 6.03322C17.4772 5.02893 17.4772 4.02465 17.4772 3.02036C17.1072 3.12608 16.6843 3.07322 16.3143 3.12608C15.8386 3.12608 15.31 3.17893 14.8343 3.12608C14.8343 4.0775 14.8343 5.08179 14.8872 6.03322ZM17.5301 6.13893C16.6843 6.45608 15.5743 6.2975 14.7286 6.24465C14.6758 6.24465 14.6758 6.19179 14.6758 6.19179C14.6229 6.19179 14.57 6.13893 14.57 6.08608C14.6229 5.08179 14.6229 4.0775 14.6229 3.07322C14.6229 3.02036 14.6229 3.02036 14.6229 2.9675C14.6229 2.86179 14.7286 2.86179 14.7815 2.91465C15.31 2.86179 15.7858 2.80893 16.3143 2.80893C16.7372 2.80893 17.2658 2.70322 17.6886 2.86179C17.7415 2.86179 17.7415 2.9675 17.6886 2.9675C17.6886 4.02465 17.6886 5.02893 17.6886 6.08608C17.6886 6.13893 17.5829 6.19179 17.5301 6.13893Z" fill="white"/>
<path d="M12.4557 12.9572C11.0286 14.0143 8.80855 13.6972 7.80427 12.1643C7.06427 10.9486 7.16998 9.41577 7.96284 8.30577C7.90998 8.35863 7.85712 8.41149 7.80427 8.46434C7.75141 8.5172 7.64569 8.46434 7.69855 8.35863C8.80855 6.56149 11.4514 6.03292 13.0371 7.56577C14.6228 9.09863 14.1471 11.6358 12.4557 12.9572ZM8.70284 7.72434C7.80427 8.72863 7.32855 10.0501 7.85712 11.3715C8.43855 12.7986 9.86569 13.6972 11.3986 13.2215C13.6186 12.5872 14.4114 9.6272 12.8257 7.98863C11.61 6.61434 10.0243 6.87863 8.70284 7.72434C8.70284 7.67149 8.70284 7.72434 8.70284 7.72434Z" fill="white"/>
<path d="M5.47856 8.46484C5.16142 8.46484 4.79142 8.41199 4.47427 8.41199C3.99856 8.46484 3.46999 8.62342 3.04713 8.46484C3.25856 9.52199 3.09999 10.632 3.15284 11.742C3.15284 13.0106 3.15284 14.2263 3.31142 15.442C3.36427 16.0763 3.52284 16.6048 3.83999 17.0277H3.89284C4.36856 17.8206 6.05999 17.5034 6.85285 17.5034C7.90999 17.5034 8.96713 17.6091 10.0771 17.5563C11.0286 17.5034 12.0328 17.4506 12.9843 17.4506C13.6714 17.2391 14.4643 17.4506 15.1514 17.4506C15.68 17.4506 16.2614 17.3977 16.8428 17.3977C17.2128 17.292 17.53 16.9748 17.6886 16.4463C18.0586 15.2306 17.7943 13.6977 17.8471 12.482C17.9 11.0548 18.0057 9.68056 18.2171 8.25341C17.7943 8.41199 17.3186 8.35913 16.8957 8.35913C16.4728 8.35913 16.05 8.35913 15.6271 8.30627C15.9443 9.2577 16.3143 10.3677 15.8914 11.3191C15.8914 11.3191 15.8914 11.3191 15.9443 11.372C15.68 12.0063 15.31 12.6406 14.94 13.1163C13.9886 14.332 12.4028 15.2834 10.87 15.3891C6.69427 15.9177 4.36856 12.2177 5.47856 8.46484ZM8.59713 17.9791C7.38142 17.9263 6.05999 18.032 4.79142 17.8734C4.36856 17.8206 3.99856 17.7148 3.83999 17.3448C3.83999 17.3977 3.78713 17.3977 3.78713 17.4506C3.62856 17.292 3.52284 17.1334 3.36427 16.9748C2.78284 16.0234 2.8357 14.5963 2.78284 13.4863C2.72999 11.7948 2.99427 10.1034 2.94142 8.46484H2.88856C2.8357 8.46484 2.8357 8.41199 2.88856 8.41199H2.94142C2.94142 8.35913 2.99427 8.35913 3.04713 8.41199C3.46999 8.25341 4.05142 8.20056 4.52713 8.20056C4.89713 8.1477 5.37284 8.1477 5.7957 8.30627C5.7957 8.35913 5.7957 8.41199 5.7957 8.46484C5.7957 8.5177 5.7957 8.57056 5.7957 8.62341H5.74284C5.74284 8.72913 5.74284 8.83484 5.74284 8.99341C5.74284 9.04627 5.74284 9.09913 5.74284 9.09913C5.74284 9.09913 5.74284 9.15199 5.74284 9.20484C5.74284 9.31056 5.74284 9.41627 5.74284 9.52199C5.68999 10.8963 5.58427 12.1648 6.42999 13.4334C7.53999 15.1248 9.60142 15.812 11.5571 15.3891C13.0371 15.072 14.4643 14.0148 15.2043 12.7463C15.4157 12.3763 15.6271 12.0063 15.7328 11.6363C15.7857 11.6363 15.7857 11.6363 15.7857 11.6363C15.8914 11.1606 15.9443 10.7906 15.8386 10.262C15.7328 9.73341 15.5743 9.20484 15.4686 8.67627H15.4157C15.3628 8.67627 15.3628 8.62341 15.4157 8.62341H15.4686C15.4686 8.5177 15.6271 8.46484 15.6271 8.57056C16.05 8.46484 16.4728 8.5177 16.8428 8.5177C17.3186 8.5177 17.8471 8.46484 18.3228 8.57056C18.3757 8.5177 18.4286 8.57056 18.4286 8.62341C18.5871 10.632 18.27 12.6406 18.2171 14.702C18.1643 15.6534 18.3757 16.922 17.6886 17.7148C17.5828 17.8206 17.53 17.8734 17.4243 17.9791V18.032C16.9486 18.402 16.1028 18.2434 15.5214 18.2963C14.8343 18.2963 14.1471 18.3491 13.5128 18.1906V18.2434C13.46 18.2434 13.4071 18.2434 13.3014 18.2434C11.7157 17.8206 10.1828 18.032 8.59713 17.9791Z" fill="white"/>
<path d="M2.94143 1.32884C4.21 0.535983 6.11286 0.535983 7.64572 0.747411C8.80858 0.641697 10.0243 0.853126 11.1343 0.853126C12.4557 0.853126 13.7243 0.747411 15.0457 0.747411C15.5214 0.747411 15.8914 0.800268 16.3143 0.853126C16.3143 0.853126 16.3143 0.905983 16.2614 0.905983C16.7372 0.95884 17.3186 0.800268 17.7414 0.905983C18.27 1.0117 18.7986 1.22313 19.1686 1.64598C20.1729 2.65027 20.1729 4.44741 20.1729 5.76884C20.12 8.14741 20.2786 10.526 20.1729 12.9574C20.1729 13.5917 20.2257 14.2788 20.2257 15.0188C20.2257 15.0188 20.2257 15.0188 20.1729 15.0188C20.2786 17.6617 18.9571 19.6174 16.1557 20.1988C14.6757 20.4631 13.1429 20.4103 11.6629 20.3574C9.91858 20.3046 8.17429 20.3046 6.43 20.1988L6.37715 20.2517C5.00286 20.0931 3.68143 20.3574 2.51857 19.4588C1.88429 18.9831 1.35572 18.1903 1.25 17.3974C1.25 17.4503 1.19715 17.4503 1.19715 17.4503C0.774289 16.3403 0.774289 14.966 0.721432 13.8031C0.721432 10.6846 0.721432 7.35455 1.14429 4.23598C1.14429 3.07313 1.93715 1.96313 2.94143 1.32884ZM5.84858 19.8817C8.75572 19.7231 11.7157 20.1988 14.6229 19.9874C16.05 19.8817 17.7414 19.5646 18.8514 18.5603C19.9614 17.5031 19.8029 16.2346 20.0672 14.966H20.0143H19.9614C19.9614 14.1203 19.8557 13.2217 19.9086 12.4288C19.9086 10.5788 19.8557 8.7817 19.9614 6.9317C20.0143 5.24027 20.3843 2.80884 18.7986 1.59313C18.0586 1.0117 17.4243 1.22313 16.5786 1.11741C16.42 1.11741 16.3671 1.11741 16.2614 1.06455C15.4157 1.0117 14.5171 1.06455 13.6714 1.06455C11.9271 1.11741 10.1829 1.0117 8.49143 0.95884C7.11715 1.17027 5.74286 0.800268 4.42143 1.06455C2.51858 1.43455 1.77857 2.8617 1.56715 4.65884C1.56715 4.7117 1.51429 4.7117 1.51429 4.76455C1.56715 6.08598 1.35572 7.40741 1.30286 8.67598C1.25 9.94455 1.25 11.266 1.30286 12.5346C1.35572 13.9617 1.35572 15.4417 1.67286 16.816C1.67286 16.8688 1.67286 16.8688 1.72572 16.9217C1.99 17.9788 2.57143 18.9831 3.62858 19.4588C4.21 19.8288 5.05572 19.776 5.84858 19.8817Z" fill="white"/>
</g>
<defs>
<clipPath id="clip0">
<rect width="19.7686" height="20.0329" fill="white" transform="translate(0.615669 0.483398)"/>
</clipPath>
</defs>
</svg>
