<svg width="70" height="22" viewBox="0 0 70 22" fill="none" xmlns="http://www.w3.org/2000/svg">
<path d="M5.32573 17.2558H13.9914V21.0872H0.337158V0.412956H5.32573V17.2558Z" fill="white"/>
<path d="M28.9058 12.3187H21.0629V17.2558H30.32V21.0872H16.1V0.412956H30.3715V4.2701H21.0886V8.61581H28.9315V12.3187H28.9058Z" fill="white"/>
<path d="M49.8371 11.1872C49.8371 13.193 49.4514 14.993 48.7057 16.5358C47.96 18.0787 46.9057 19.2872 45.5171 20.1101C44.1285 20.9587 42.5857 21.3701 40.8114 21.3701C39.0371 21.3701 37.4943 20.9587 36.1314 20.1615C34.7685 19.3644 33.7143 18.2072 32.9428 16.6901C32.1714 15.1987 31.7857 13.4501 31.7343 11.5215V10.3644C31.7343 8.33295 32.0943 6.55867 32.84 5.01581C33.5857 3.47295 34.64 2.26438 36.0285 1.44152C37.4171 0.592951 38.9857 0.181522 40.76 0.181522C42.5085 0.181522 44.0771 0.592951 45.44 1.44152C46.8028 2.26438 47.8828 3.44724 48.6285 4.99009C49.4 6.53295 49.7857 8.28152 49.7857 10.2872V11.1872H49.8371ZM44.7714 10.313C44.7714 8.25581 44.4371 6.71295 43.7428 5.63295C43.0485 4.57867 42.0714 4.03867 40.8114 4.03867C38.3171 4.03867 37.0057 5.91581 36.8514 9.64438L36.8257 11.1615C36.8257 13.193 37.16 14.7358 37.8285 15.8415C38.4971 16.9215 39.5 17.4615 40.8114 17.4615C42.0714 17.4615 43.0485 16.9215 43.7171 15.8672C44.3857 14.7872 44.7457 13.2701 44.7457 11.2644V10.313H44.7714Z" fill="white"/>
<path d="M69.6629 21.0872H64.7L57.3714 8.2301V21.0872H52.3829V0.412956H57.3714L64.6743 13.2701V0.412956H69.6372V21.0872H69.6629Z" fill="white"/>
</svg>
