<svg width="11" height="21" viewBox="0 0 11 21" fill="none" xmlns="http://www.w3.org/2000/svg">
<g clip-path="url(#clip0)">
<path d="M2.90997 9.86553C2.53997 9.86553 2.22283 9.86553 1.85283 9.91838C1.69426 9.91838 1.42997 9.86553 1.2714 9.91838C1.21854 9.60124 1.2714 9.17838 1.32426 8.80838C1.32426 8.43838 1.37711 7.96267 1.32426 7.53981C1.6414 7.59267 2.0114 7.59267 2.32854 7.59267C2.59283 7.59267 2.85711 7.53981 3.1214 7.4341C3.17425 7.4341 3.27997 7.38124 3.33283 7.32838C3.43854 7.27553 3.38568 7.16981 3.33283 7.11695C3.22711 5.53124 3.27997 3.15267 4.54854 2.09553C5.86997 1.03838 8.24854 1.30267 9.88711 1.5141C9.46425 2.14838 9.62283 3.04695 9.46425 3.78695C8.72425 3.46981 7.50854 3.57553 6.97997 4.1041C6.23997 4.89695 6.60997 6.11267 6.66283 7.0641C6.66283 7.22267 6.87425 7.32838 6.97997 7.27553C7.45568 7.4341 7.98425 7.4341 8.51283 7.4341C8.88282 7.4341 9.25282 7.4341 9.62282 7.38124C9.51711 7.69838 9.46425 8.06838 9.46425 8.43838C9.4114 8.9141 9.4114 9.38981 9.46425 9.86553C9.46425 9.86553 9.46425 9.86553 9.4114 9.86553C8.51283 10.1298 7.61425 9.81267 6.76854 9.91838C6.66283 9.91838 6.60997 10.077 6.66283 10.1298C6.0814 11.2927 6.34568 13.1955 6.39854 14.4112C6.4514 16.1555 6.55711 18.0584 6.39854 19.8027C5.86997 19.7498 5.28854 19.8027 4.70711 19.8027C4.17854 19.697 3.70283 19.697 3.27997 19.8555C3.27997 18.1641 3.27997 16.4727 3.33283 14.7812C3.38568 13.1955 3.54425 11.557 3.33283 9.97124C3.33283 9.86553 3.17425 9.86553 3.1214 9.91838C3.06854 9.86553 3.01568 9.86553 2.90997 9.86553Z" fill="white"/>
<path d="M3.06849 7.43413C2.80421 7.53984 2.53992 7.53984 2.27564 7.53984C1.9585 7.5927 1.5885 7.53984 1.27135 7.48699C1.32421 7.90984 1.32421 8.3327 1.27135 8.75556C1.27135 9.12556 1.16564 9.49556 1.2185 9.86556C1.42992 9.86556 1.64135 9.86556 1.79992 9.86556C2.16992 9.86556 2.48707 9.8127 2.85707 9.8127C2.96278 9.8127 3.01564 9.86556 3.01564 9.91841C3.06849 9.86556 3.22707 9.86556 3.22707 9.97127C3.49135 11.557 3.27992 13.1956 3.22707 14.7813C3.27992 16.4727 3.22707 18.1641 3.27992 19.8556C3.70278 19.697 4.17849 19.697 4.65421 19.7498C5.18278 19.8027 5.76421 19.697 6.34564 19.7498C6.50421 18.0056 6.34564 16.1027 6.34564 14.3584C6.29278 13.1427 6.02849 11.2398 6.60992 10.077C6.55707 9.97127 6.60992 9.86556 6.71564 9.86556C7.61421 9.75984 8.51278 10.077 9.35849 9.8127C9.35849 9.8127 9.35849 9.8127 9.41135 9.8127C9.41135 9.33699 9.41135 8.86127 9.41135 8.38556C9.41135 8.01556 9.46421 7.69841 9.56992 7.32841C9.19992 7.38127 8.82992 7.38127 8.45992 7.38127C7.98421 7.38127 7.40278 7.38127 6.92706 7.2227C6.82135 7.27556 6.60992 7.2227 6.60992 7.01127C6.55707 6.05984 6.23992 4.84413 6.92706 4.05127C7.45564 3.46984 8.67135 3.36413 9.41135 3.73413C9.56992 2.99413 9.46421 2.14841 9.83421 1.46127C8.19564 1.24984 5.81707 0.932699 4.49564 2.0427C3.22707 3.09984 3.17421 5.47841 3.27992 7.06413C3.33278 7.11699 3.33278 7.2227 3.27992 7.27556C3.22707 7.38127 3.17421 7.43413 3.06849 7.43413ZM2.96278 19.9084C2.90992 18.217 2.80421 16.5256 2.85707 14.8341C2.90992 13.3013 2.80421 11.7684 3.01564 10.2356C2.96278 10.2356 2.96278 10.2884 2.90992 10.2884C2.48707 10.3413 2.11707 10.3413 1.69421 10.3413C1.53564 10.3413 1.27135 10.2884 1.16564 10.1827C1.05992 10.2356 0.95421 10.1827 0.901353 10.077C0.689924 9.75984 0.795639 9.28413 0.848496 8.91413C0.901353 8.43841 0.795639 7.85699 1.00707 7.43413C1.00707 7.32841 1.05992 7.16984 1.2185 7.2227C1.53564 7.27556 1.90564 7.27556 2.22278 7.2227C2.43421 7.2227 2.64564 7.16984 2.80421 7.11699C2.59278 6.21841 2.80421 5.16127 2.90992 4.36841C3.0685 3.36413 3.33278 2.4127 4.17849 1.72556C4.91849 1.14413 5.81707 0.879842 6.76849 0.879842C7.82564 0.826985 9.14706 0.615556 10.0985 1.19698C10.1514 1.19698 10.1514 1.24984 10.1514 1.24984C10.2042 1.24984 10.2571 1.3027 10.2571 1.40841C10.1514 1.88413 10.0985 2.4127 10.0456 2.88841C10.0456 3.25841 10.0456 3.62841 9.88706 3.99841C9.83421 4.05127 9.83421 4.10413 9.72849 4.15699C9.72849 4.20984 9.67564 4.20984 9.67564 4.20984C8.82992 4.42127 7.71992 3.68127 7.13849 4.68556C6.71564 5.3727 6.97992 6.37699 7.03278 7.11699C7.56135 7.01127 8.08992 7.06413 8.61849 7.06413C8.98849 7.06413 9.51706 6.95841 9.83421 7.2227C9.83421 7.27556 9.88706 7.27556 9.83421 7.32841C10.2042 8.06841 9.83421 9.23127 9.78135 10.0241C9.78135 10.1298 9.72849 10.1827 9.62278 10.1827C9.62278 10.2356 9.56992 10.2884 9.46421 10.3413C8.61849 10.6056 7.66706 10.447 6.82135 10.2884C6.92706 11.8741 6.76849 13.5656 6.76849 15.1513C6.76849 16.6841 7.03278 18.3756 6.76849 19.9084C6.76849 19.9613 6.71564 19.9613 6.71564 20.0141C6.71564 20.067 6.66278 20.1198 6.60992 20.1198C5.97564 20.2256 5.23564 20.2256 4.65421 20.1727C4.17849 20.1198 3.59707 20.2256 3.17421 20.0141C3.0685 20.067 2.96278 20.0141 2.96278 19.9084Z" fill="white"/>
</g>
<defs>
<clipPath id="clip0">
<rect width="9.72571" height="19.6629" fill="white" transform="translate(0.637104 0.668457)"/>
</clipPath>
</defs>
</svg>
