<svg width="22" height="15" viewBox="0 0 22 15" fill="none" xmlns="http://www.w3.org/2000/svg">
<g clip-path="url(#clip0)">
<path d="M20.4186 4.93631C20.4729 6.68059 20.7443 8.53059 20.5272 10.3277C20.3643 11.702 19.93 13.0235 18.41 13.4992C17.4872 13.7635 16.3472 13.8692 15.37 13.8692C13.47 13.922 11.5157 13.8692 9.61573 13.8692C7.98716 13.8692 6.35859 14.0806 4.78431 13.9749C3.59002 13.922 2.50431 13.6049 1.96145 12.4949C1.58145 11.702 1.63573 10.7506 1.58145 9.85202C1.58145 9.85202 1.63573 9.85202 1.63573 9.79916C1.58145 9.53488 1.58145 9.27059 1.58145 8.95345C1.58145 7.84345 1.58145 6.68059 1.52716 5.57059C1.52716 4.40773 1.41859 2.98059 2.34145 2.02916C2.93859 1.44773 3.64431 1.23631 4.45859 1.18345C4.51288 1.23631 4.56716 1.23631 4.62145 1.18345C4.62145 1.18345 4.62145 1.18345 4.67573 1.18345C4.73002 1.18345 4.78431 1.18345 4.83859 1.18345V1.13059C5.81573 1.07773 6.79288 1.13059 7.71573 1.18345C9.12716 1.23631 10.4843 1.18345 11.8957 1.18345C13.2529 1.18345 14.61 1.13059 15.9672 1.07773C17.1614 1.07773 18.7357 1.02488 19.6586 1.92345L19.7129 1.97631C19.7672 2.02916 19.8214 2.13488 19.8757 2.18773C20.4186 3.03345 20.4186 3.98488 20.4186 4.93631ZM14.2843 7.68488C14.4472 7.52631 14.2843 7.31488 14.0672 7.36774C13.7414 7.10345 13.3614 6.89202 12.9814 6.68059C12.4929 6.36345 12.0586 5.94059 11.5157 5.62345C10.4843 4.98916 9.34431 4.51345 8.25859 3.93202H8.20431C8.20431 3.93202 8.15002 3.93202 8.15002 3.98488C8.09573 3.98488 8.09573 4.03773 8.09573 4.09059C7.87859 5.25345 8.04145 6.52202 7.98716 7.73774C7.98716 8.90059 7.82431 10.1163 8.04145 11.2792C8.09573 11.4377 8.36716 11.4377 8.36716 11.2792C9.50716 10.8563 10.3757 10.0635 11.3529 9.37631C12.4386 8.68916 13.5243 8.37202 14.2843 7.68488Z" fill="white"/>
<path d="M8.53005 10.9089C8.74719 10.5918 9.39862 10.2746 9.61576 10.116C10.1043 9.74605 10.5929 9.42891 11.1358 9.05891C12.0043 8.47748 12.9815 8.05462 13.85 7.52605C12.8186 6.94462 11.8415 6.25748 10.81 5.72891C10.05 5.35891 9.07291 4.98891 8.47576 4.35462C8.69291 5.35891 8.58433 6.41605 8.58433 7.42034C8.58433 8.58319 8.53005 9.74605 8.53005 10.9089ZM8.36719 3.87891C9.39862 4.46033 10.5386 4.98891 11.6243 5.57033C12.1672 5.88748 12.5472 6.31033 13.09 6.62748C13.47 6.89176 13.85 7.05034 14.1758 7.31462C14.3386 7.26176 14.5015 7.47319 14.3929 7.63176C13.6329 8.31891 12.4929 8.68891 11.6243 9.27034C10.6472 9.95748 9.72433 10.7503 8.63862 11.1732C8.58433 11.3318 8.31291 11.3318 8.31291 11.1732C8.15005 10.0103 8.25862 8.79462 8.25862 7.63176C8.25862 6.41605 8.15005 5.14748 8.36719 3.98462C8.36719 3.93176 8.36719 3.87891 8.42148 3.87891C8.31291 3.87891 8.31291 3.87891 8.36719 3.87891Z" fill="white"/>
<path d="M1.63574 9.00596C1.63574 9.27024 1.63574 9.58739 1.69002 9.85167C1.69002 9.85167 1.63574 9.85167 1.63574 9.90453C1.63574 10.8031 1.63574 11.7545 2.01574 12.5474C2.5586 13.6574 3.64431 13.9745 4.8386 14.0274C6.41288 14.1331 8.09574 13.9745 9.67002 13.9217C11.57 13.9217 13.5243 13.9745 15.4243 13.9217C16.4015 13.9217 17.5415 13.816 18.4643 13.5517C19.9843 13.076 20.3643 11.7545 20.5815 10.3802C20.7986 8.63596 20.5272 6.78596 20.4729 4.98882C20.4729 4.03739 20.4186 3.0331 19.93 2.18739C19.8757 2.13453 19.8215 2.02881 19.7672 1.97596C19.7672 1.97596 19.7129 1.97596 19.7129 1.9231C18.79 1.07739 17.2157 1.07739 16.0215 1.07739C14.6643 1.07739 13.3072 1.1831 11.95 1.1831C10.5386 1.13024 9.18145 1.23596 7.77002 1.1831C6.7386 1.07739 5.76145 1.02453 4.8386 1.07739C4.8386 1.07739 4.8386 1.07739 4.8386 1.13024C4.78431 1.13024 4.73002 1.13024 4.67574 1.13024C4.67574 1.13024 4.67574 1.13024 4.62145 1.13024C4.56717 1.1831 4.51288 1.1831 4.4586 1.13024C3.64431 1.28881 2.9386 1.44739 2.34145 2.02881C1.4186 2.98024 1.52717 4.40739 1.58145 5.57024C1.58145 6.7331 1.63574 7.8431 1.63574 9.00596ZM7.71574 0.707386C9.56145 0.760243 11.3529 0.760243 13.1986 0.760243C14.7729 0.760243 16.4557 0.390243 18.03 0.760243C18.5186 0.865957 19.17 1.07739 19.55 1.44739C19.55 1.44739 19.55 1.39453 19.6043 1.39453C19.93 1.65881 20.2015 1.97596 20.3643 2.34596C21.07 3.7731 20.8529 5.41167 20.9615 6.94453C21.1243 9.79882 21.3957 13.6574 17.65 14.2388C15.5872 14.556 13.47 14.3445 11.3529 14.3974C9.39859 14.4502 7.44431 14.5031 5.43574 14.5031C4.18717 14.5031 2.88431 14.3974 1.96145 13.4988C0.98431 12.5474 0.930025 11.1731 1.09288 9.90453H1.0386C1.0386 9.3231 1.0386 8.68882 1.0386 8.10739C1.09288 6.57453 0.875739 5.04167 1.09288 3.61453C1.36431 1.76453 2.83002 0.8131 4.51288 0.760243C4.56717 0.760243 4.56717 0.760243 4.62145 0.707386L4.67574 0.760243C5.5986 0.4431 6.68431 0.654529 7.71574 0.707386Z" fill="white"/>
</g>
<defs>
<clipPath id="clip0">
<rect width="20.2486" height="14.1129" fill="white" transform="translate(0.875739 0.443359)"/>
</clipPath>
</defs>
</svg>
